<mxfile host="Electron" modified="2024-09-23T08:57:57.185Z" agent="Mozilla/5.0 (Windows NT 10.0; Win64; x64) AppleWebKit/537.36 (KHTML, like Gecko) draw.io/21.7.5 Chrome/114.0.5735.289 Electron/25.8.1 Safari/537.36" etag="eGdN8h3rRNdRP_OPySiU" version="21.7.5" type="device">
  <diagram name="PÃ¡gina-1" id="gyrvyEKYtlpRR8jCrh3p">
    <mxGraphModel dx="1668" dy="965" grid="1" gridSize="10" guides="1" tooltips="1" connect="1" arrows="1" fold="1" page="1" pageScale="1" pageWidth="827" pageHeight="1169" math="0" shadow="0">
      <root>
        <mxCell id="0" />
        <mxCell id="1" parent="0" />
        <mxCell id="TLXHKHgxKXKyUfO0tKfH-20" style="edgeStyle=orthogonalEdgeStyle;rounded=0;orthogonalLoop=1;jettySize=auto;html=1;entryX=0.5;entryY=0;entryDx=0;entryDy=0;" edge="1" parent="1" source="TLXHKHgxKXKyUfO0tKfH-1" target="TLXHKHgxKXKyUfO0tKfH-3">
          <mxGeometry relative="1" as="geometry" />
        </mxCell>
        <mxCell id="TLXHKHgxKXKyUfO0tKfH-1" value="Inicio SwitchCase" style="rounded=1;whiteSpace=wrap;html=1;" vertex="1" parent="1">
          <mxGeometry x="354" y="40" width="120" height="60" as="geometry" />
        </mxCell>
        <mxCell id="TLXHKHgxKXKyUfO0tKfH-27" style="edgeStyle=orthogonalEdgeStyle;rounded=0;orthogonalLoop=1;jettySize=auto;html=1;entryX=0.5;entryY=0;entryDx=0;entryDy=0;" edge="1" parent="1" source="TLXHKHgxKXKyUfO0tKfH-3" target="TLXHKHgxKXKyUfO0tKfH-26">
          <mxGeometry relative="1" as="geometry" />
        </mxCell>
        <mxCell id="TLXHKHgxKXKyUfO0tKfH-3" value="Leer sueldo" style="shape=parallelogram;perimeter=parallelogramPerimeter;whiteSpace=wrap;html=1;fixedSize=1;" vertex="1" parent="1">
          <mxGeometry x="354" y="130" width="120" height="60" as="geometry" />
        </mxCell>
        <mxCell id="TLXHKHgxKXKyUfO0tKfH-4" value="CatLaboral" style="rhombus;whiteSpace=wrap;html=1;" vertex="1" parent="1">
          <mxGeometry x="337" y="320" width="154" height="80" as="geometry" />
        </mxCell>
        <mxCell id="TLXHKHgxKXKyUfO0tKfH-5" value="" style="endArrow=none;html=1;rounded=0;entryX=0.5;entryY=1;entryDx=0;entryDy=0;" edge="1" parent="1" target="TLXHKHgxKXKyUfO0tKfH-4">
          <mxGeometry width="50" height="50" relative="1" as="geometry">
            <mxPoint x="414" y="440" as="sourcePoint" />
            <mxPoint x="440" y="470" as="targetPoint" />
          </mxGeometry>
        </mxCell>
        <mxCell id="TLXHKHgxKXKyUfO0tKfH-32" style="edgeStyle=orthogonalEdgeStyle;rounded=0;orthogonalLoop=1;jettySize=auto;html=1;entryX=0;entryY=0.5;entryDx=0;entryDy=0;" edge="1" parent="1" source="TLXHKHgxKXKyUfO0tKfH-6" target="TLXHKHgxKXKyUfO0tKfH-30">
          <mxGeometry relative="1" as="geometry">
            <Array as="points">
              <mxPoint x="160" y="610" />
            </Array>
          </mxGeometry>
        </mxCell>
        <mxCell id="TLXHKHgxKXKyUfO0tKfH-6" value="retencion = sueldo * 0.10" style="rounded=0;whiteSpace=wrap;html=1;" vertex="1" parent="1">
          <mxGeometry x="120" y="470" width="80" height="40" as="geometry" />
        </mxCell>
        <mxCell id="TLXHKHgxKXKyUfO0tKfH-34" style="edgeStyle=orthogonalEdgeStyle;rounded=0;orthogonalLoop=1;jettySize=auto;html=1;entryX=0.5;entryY=0;entryDx=0;entryDy=0;" edge="1" parent="1" source="TLXHKHgxKXKyUfO0tKfH-7" target="TLXHKHgxKXKyUfO0tKfH-30">
          <mxGeometry relative="1" as="geometry" />
        </mxCell>
        <mxCell id="TLXHKHgxKXKyUfO0tKfH-7" value="&lt;span style=&quot;color: rgb(0, 0, 0); font-family: Helvetica; font-size: 12px; font-style: normal; font-variant-ligatures: normal; font-variant-caps: normal; font-weight: 400; letter-spacing: normal; orphans: 2; text-align: center; text-indent: 0px; text-transform: none; widows: 2; word-spacing: 0px; -webkit-text-stroke-width: 0px; background-color: rgb(251, 251, 251); text-decoration-thickness: initial; text-decoration-style: initial; text-decoration-color: initial; float: none; display: inline !important;&quot;&gt;retencion = sueldo * 0.20&lt;/span&gt;" style="rounded=0;whiteSpace=wrap;html=1;" vertex="1" parent="1">
          <mxGeometry x="374" y="470" width="80" height="40" as="geometry" />
        </mxCell>
        <mxCell id="TLXHKHgxKXKyUfO0tKfH-33" style="edgeStyle=orthogonalEdgeStyle;rounded=0;orthogonalLoop=1;jettySize=auto;html=1;entryX=0;entryY=0.25;entryDx=0;entryDy=0;" edge="1" parent="1" source="TLXHKHgxKXKyUfO0tKfH-8" target="TLXHKHgxKXKyUfO0tKfH-30">
          <mxGeometry relative="1" as="geometry">
            <Array as="points">
              <mxPoint x="280" y="598" />
            </Array>
          </mxGeometry>
        </mxCell>
        <mxCell id="TLXHKHgxKXKyUfO0tKfH-8" value="&lt;span style=&quot;color: rgb(0, 0, 0); font-family: Helvetica; font-size: 12px; font-style: normal; font-variant-ligatures: normal; font-variant-caps: normal; font-weight: 400; letter-spacing: normal; orphans: 2; text-align: center; text-indent: 0px; text-transform: none; widows: 2; word-spacing: 0px; -webkit-text-stroke-width: 0px; background-color: rgb(251, 251, 251); text-decoration-thickness: initial; text-decoration-style: initial; text-decoration-color: initial; float: none; display: inline !important;&quot;&gt;retencion = sueldo * 0.15&lt;/span&gt;" style="rounded=0;whiteSpace=wrap;html=1;" vertex="1" parent="1">
          <mxGeometry x="250" y="470" width="80" height="40" as="geometry" />
        </mxCell>
        <mxCell id="TLXHKHgxKXKyUfO0tKfH-37" style="edgeStyle=orthogonalEdgeStyle;rounded=0;orthogonalLoop=1;jettySize=auto;html=1;" edge="1" parent="1" source="TLXHKHgxKXKyUfO0tKfH-9" target="TLXHKHgxKXKyUfO0tKfH-30">
          <mxGeometry relative="1" as="geometry">
            <Array as="points">
              <mxPoint x="550" y="599" />
            </Array>
          </mxGeometry>
        </mxCell>
        <mxCell id="TLXHKHgxKXKyUfO0tKfH-9" value="retencion = sueldo * 0.25" style="rounded=0;whiteSpace=wrap;html=1;" vertex="1" parent="1">
          <mxGeometry x="510" y="470" width="80" height="40" as="geometry" />
        </mxCell>
        <mxCell id="TLXHKHgxKXKyUfO0tKfH-36" style="edgeStyle=orthogonalEdgeStyle;rounded=0;orthogonalLoop=1;jettySize=auto;html=1;entryX=1;entryY=0.5;entryDx=0;entryDy=0;" edge="1" parent="1" source="TLXHKHgxKXKyUfO0tKfH-10" target="TLXHKHgxKXKyUfO0tKfH-30">
          <mxGeometry relative="1" as="geometry">
            <Array as="points">
              <mxPoint x="680" y="610" />
            </Array>
          </mxGeometry>
        </mxCell>
        <mxCell id="TLXHKHgxKXKyUfO0tKfH-10" value="retencion = sueldo * 0.30" style="rounded=0;whiteSpace=wrap;html=1;" vertex="1" parent="1">
          <mxGeometry x="640" y="470" width="80" height="40" as="geometry" />
        </mxCell>
        <mxCell id="TLXHKHgxKXKyUfO0tKfH-12" value="" style="endArrow=none;html=1;rounded=0;" edge="1" parent="1">
          <mxGeometry width="50" height="50" relative="1" as="geometry">
            <mxPoint x="160" y="440" as="sourcePoint" />
            <mxPoint x="680" y="440" as="targetPoint" />
          </mxGeometry>
        </mxCell>
        <mxCell id="TLXHKHgxKXKyUfO0tKfH-14" value="" style="endArrow=classic;html=1;rounded=0;entryX=0.5;entryY=0;entryDx=0;entryDy=0;" edge="1" parent="1" target="TLXHKHgxKXKyUfO0tKfH-6">
          <mxGeometry width="50" height="50" relative="1" as="geometry">
            <mxPoint x="160" y="440" as="sourcePoint" />
            <mxPoint x="500" y="420" as="targetPoint" />
          </mxGeometry>
        </mxCell>
        <mxCell id="TLXHKHgxKXKyUfO0tKfH-15" value="" style="endArrow=classic;html=1;rounded=0;entryX=0.5;entryY=0;entryDx=0;entryDy=0;" edge="1" parent="1">
          <mxGeometry width="50" height="50" relative="1" as="geometry">
            <mxPoint x="289.65999999999997" y="440" as="sourcePoint" />
            <mxPoint x="289.65999999999997" y="470" as="targetPoint" />
          </mxGeometry>
        </mxCell>
        <mxCell id="TLXHKHgxKXKyUfO0tKfH-16" value="" style="endArrow=classic;html=1;rounded=0;entryX=0.5;entryY=0;entryDx=0;entryDy=0;" edge="1" parent="1">
          <mxGeometry width="50" height="50" relative="1" as="geometry">
            <mxPoint x="413.65999999999997" y="440" as="sourcePoint" />
            <mxPoint x="413.65999999999997" y="470" as="targetPoint" />
          </mxGeometry>
        </mxCell>
        <mxCell id="TLXHKHgxKXKyUfO0tKfH-17" value="" style="endArrow=classic;html=1;rounded=0;entryX=0.5;entryY=0;entryDx=0;entryDy=0;" edge="1" parent="1">
          <mxGeometry width="50" height="50" relative="1" as="geometry">
            <mxPoint x="549.66" y="440" as="sourcePoint" />
            <mxPoint x="549.66" y="470" as="targetPoint" />
          </mxGeometry>
        </mxCell>
        <mxCell id="TLXHKHgxKXKyUfO0tKfH-18" value="" style="endArrow=classic;html=1;rounded=0;entryX=0.5;entryY=0;entryDx=0;entryDy=0;" edge="1" parent="1">
          <mxGeometry width="50" height="50" relative="1" as="geometry">
            <mxPoint x="679.66" y="440" as="sourcePoint" />
            <mxPoint x="679.66" y="470" as="targetPoint" />
          </mxGeometry>
        </mxCell>
        <mxCell id="TLXHKHgxKXKyUfO0tKfH-21" value="1" style="text;html=1;strokeColor=none;fillColor=none;align=center;verticalAlign=middle;whiteSpace=wrap;rounded=0;" vertex="1" parent="1">
          <mxGeometry x="120" y="440" width="60" height="30" as="geometry" />
        </mxCell>
        <mxCell id="TLXHKHgxKXKyUfO0tKfH-22" value="2" style="text;html=1;strokeColor=none;fillColor=none;align=center;verticalAlign=middle;whiteSpace=wrap;rounded=0;" vertex="1" parent="1">
          <mxGeometry x="250" y="440" width="60" height="30" as="geometry" />
        </mxCell>
        <mxCell id="TLXHKHgxKXKyUfO0tKfH-23" value="3" style="text;html=1;strokeColor=none;fillColor=none;align=center;verticalAlign=middle;whiteSpace=wrap;rounded=0;" vertex="1" parent="1">
          <mxGeometry x="360" y="440" width="60" height="30" as="geometry" />
        </mxCell>
        <mxCell id="TLXHKHgxKXKyUfO0tKfH-24" value="4" style="text;html=1;strokeColor=none;fillColor=none;align=center;verticalAlign=middle;whiteSpace=wrap;rounded=0;" vertex="1" parent="1">
          <mxGeometry x="510" y="440" width="60" height="30" as="geometry" />
        </mxCell>
        <mxCell id="TLXHKHgxKXKyUfO0tKfH-25" value="default" style="text;html=1;strokeColor=none;fillColor=none;align=center;verticalAlign=middle;whiteSpace=wrap;rounded=0;" vertex="1" parent="1">
          <mxGeometry x="630" y="440" width="60" height="30" as="geometry" />
        </mxCell>
        <mxCell id="TLXHKHgxKXKyUfO0tKfH-26" value="Leer catLaboral" style="shape=parallelogram;perimeter=parallelogramPerimeter;whiteSpace=wrap;html=1;fixedSize=1;" vertex="1" parent="1">
          <mxGeometry x="353" y="240" width="120" height="60" as="geometry" />
        </mxCell>
        <mxCell id="TLXHKHgxKXKyUfO0tKfH-29" value="Fin SwitchCase" style="rounded=1;whiteSpace=wrap;html=1;" vertex="1" parent="1">
          <mxGeometry x="353" y="740" width="120" height="60" as="geometry" />
        </mxCell>
        <mxCell id="TLXHKHgxKXKyUfO0tKfH-39" style="edgeStyle=orthogonalEdgeStyle;rounded=0;orthogonalLoop=1;jettySize=auto;html=1;entryX=0.5;entryY=0;entryDx=0;entryDy=0;" edge="1" parent="1" source="TLXHKHgxKXKyUfO0tKfH-30" target="TLXHKHgxKXKyUfO0tKfH-31">
          <mxGeometry relative="1" as="geometry" />
        </mxCell>
        <mxCell id="TLXHKHgxKXKyUfO0tKfH-30" value="Escribir retencion" style="shape=parallelogram;perimeter=parallelogramPerimeter;whiteSpace=wrap;html=1;fixedSize=1;" vertex="1" parent="1">
          <mxGeometry x="354" y="580" width="120" height="60" as="geometry" />
        </mxCell>
        <mxCell id="TLXHKHgxKXKyUfO0tKfH-40" style="edgeStyle=orthogonalEdgeStyle;rounded=0;orthogonalLoop=1;jettySize=auto;html=1;entryX=0.5;entryY=0;entryDx=0;entryDy=0;" edge="1" parent="1" source="TLXHKHgxKXKyUfO0tKfH-31" target="TLXHKHgxKXKyUfO0tKfH-29">
          <mxGeometry relative="1" as="geometry" />
        </mxCell>
        <mxCell id="TLXHKHgxKXKyUfO0tKfH-31" value="Escribir&amp;nbsp;&lt;br&gt;(sueldo-retencion)" style="shape=parallelogram;perimeter=parallelogramPerimeter;whiteSpace=wrap;html=1;fixedSize=1;" vertex="1" parent="1">
          <mxGeometry x="346.5" y="660" width="133" height="60" as="geometry" />
        </mxCell>
      </root>
    </mxGraphModel>
  </diagram>
</mxfile>
